# xmcd
# 
# Track frame offsets:
#     150
#     15655
#     39120
#     56741
#     80178
#     96359
#     122552
#     148423
#     163821
#     178271
#     196149
#     217226
#     232127
#     244248
# 
# Disc length: 3572
# 
# Revision: 0
# Processed by: cddbd v1.5.2PL0 Copyright (c) Steve Scherf et al.
# Submitted via: fre:ac v1.0.31
# 
DISCID=d50df20e
DTITLE=Various Artist - Sean Carney's Blues for a Cure: Blues Cures Studio Jam, Vol. 8
DYEAR=2016
DGENRE=Blues
TTITLE0=Sean Carney and Hadden Sayers - Lickin' Stick
TTITLE1=JP Soars, Damon Fowler and Victor Wainright - Deep Down in Florida
TTITLE2=Billy The Kid, Victor Wainright and Nick Black - Say You Want A Woman
TTITLE3=Damon Fowler, Victor Wainright, Cody Romshak and JP Soars - Night Life
TTITLE4=Victor Wainwright, Damon Fowler, and Nick Black - Alabama Jubilee
TTITLE5=Sean Carney and Steve Laudicina - Cole Slaw
TTITLE6=JP Soars, Victor Wainright, and Damon Fowler - Dog's Been On A Leash
TTITLE7=Nick Black and Steve Laudicina - Hard To Be A Gentleman
TTITLE8=Damon Fowler, Victor Wainright and Nick Black - Mystery Dance
TTITLE9=Steve Laudicina, JP Soars, and Victor Wainright - Night Call
TTITLE10=Hadden Sayers and Sean Carney - Hit The Road
TTITLE11=Billy The Kid, Victor Wainright and Damon Fowler - My Sweet Honey Child
TTITLE12=Sean Carney, Victor Wainright, Damon Fowler, and Nick Black - Lawdy Miss Clawdy
TTITLE13=Victor Wainright, Damon Fowler and Nick Black - Till I Gain Control Again
EXTD=
EXTT0=
EXTT1=
EXTT2=
EXTT3=
EXTT4=
EXTT5=
EXTT6=
EXTT7=
EXTT8=
EXTT9=
EXTT10=
EXTT11=
EXTT12=
EXTT13=
PLAYORDER=
